# xmcd CD database file
#
# Track frame offsets:
#	150
#	5300
#	26100
#	42165
#	66497
#	80627
#	99310
#	121125
#	145430
#	178135
#	198297
#	218550
#	238005
#	263265
#	282705
#	285437
#	310000
#
# Disc length: 4371 seconds
#
# Revision: 0
# Processed by: cddbd v1.5.1PL0 Copyright (c) Steve Scherf et al.
# Submitted via: CDex 1.51
#
DISCID=f0111111
DTITLE=Handsome Boy Modeling School - White People
DYEAR=2004
DGENRE=Hip Hop
TTITLE0=Intro
TTITLE1=If It Wasn't For You
TTITLE2=Are You Down With It
TTITLE3=The World's Gone Mad
TTITLE4=Dating Game
TTITLE5=Breakdown
TTITLE6=It's Like That
TTITLE7=I've Been Thinking
TTITLE8=Rock And Roll (Could Never Hip Hop Like This) Part 2
TTITLE9=The Hours
TTITLE10=Class System
TTITLE11=First... And Then
TTITLE12=A Day In The Life
TTITLE13=Greatest Mistake
TTITLE14=Dating Game Part 2
TTITLE15=Outro
TTITLE16=The Runway Song Part 2
EXTD=YEAR: 2004
EXTT0=
EXTT1=
EXTT2=
EXTT3=
EXTT4=
EXTT5=
EXTT6=
EXTT7=
EXTT8=
EXTT9=
EXTT10=
EXTT11=
EXTT12=
EXTT13=
EXTT14=
EXTT15=
EXTT16=
PLAYORDER=
